<svg width="161" height="31" viewBox="0 0 161 31" fill="none" xmlns="http://www.w3.org/2000/svg">
<path d="M9.976 2.984C9.25067 3.02667 8.728 3.112 8.408 3.24C8.088 3.368 7.864 3.61333 7.736 3.976C7.62933 4.33867 7.576 4.92533 7.576 5.736V21.608C7.576 22.4187 7.62933 23.0053 7.736 23.368C7.864 23.7307 8.088 23.976 8.408 24.104C8.728 24.232 9.25067 24.3173 9.976 24.36V25C8.824 24.936 7.21333 24.904 5.144 24.904C2.86133 24.904 1.176 24.936 0.0880001 25V24.36C0.792 24.3173 1.304 24.232 1.624 24.104C1.96533 23.976 2.18933 23.7307 2.296 23.368C2.424 23.0053 2.488 22.4187 2.488 21.608V5.736C2.488 4.92533 2.424 4.33867 2.296 3.976C2.18933 3.61333 1.96533 3.368 1.624 3.24C1.304 3.112 0.792 3.02667 0.0880001 2.984V2.344C1.176 2.408 2.86133 2.44 5.144 2.44C7.21333 2.44 8.824 2.408 9.976 2.344V2.984ZM23.7033 8.008C25.3246 8.008 26.4979 8.424 27.2233 9.256C27.5859 9.66133 27.8419 10.184 27.9913 10.824C28.1406 11.464 28.2153 12.328 28.2153 13.416V22.024C28.2153 22.8987 28.3646 23.5067 28.6632 23.848C28.9833 24.168 29.5166 24.328 30.2633 24.328V25C28.1299 24.9147 26.7219 24.872 26.0393 24.872C25.3993 24.872 24.0126 24.9147 21.8793 25V24.328C22.5193 24.328 22.9673 24.168 23.2233 23.848C23.4793 23.5067 23.6073 22.8987 23.6073 22.024V12.072C23.6073 11.1973 23.4579 10.536 23.1593 10.088C22.8819 9.64 22.3699 9.416 21.6233 9.416C20.7486 9.416 20.0019 9.77867 19.3833 10.504C18.7646 11.208 18.4553 12.0827 18.4553 13.128V22.024C18.4553 22.8987 18.5833 23.5067 18.8393 23.848C19.0953 24.168 19.5433 24.328 20.1833 24.328V25C18.2206 24.9147 16.8979 24.872 16.2153 24.872C15.5752 24.872 14.1032 24.9147 11.7993 25V24.328C12.5673 24.328 13.1006 24.168 13.3993 23.848C13.6979 23.5067 13.8473 22.8987 13.8473 22.024V11.944C13.8473 10.9627 13.6979 10.248 13.3993 9.8C13.1006 9.352 12.5673 9.128 11.7993 9.128V8.456C12.4819 8.52 13.1433 8.552 13.7833 8.552C15.6819 8.552 17.2393 8.40267 18.4553 8.104V10.984C19.4153 9 21.1646 8.008 23.7033 8.008ZM37.9515 8.456H41.7275V9.096H37.9515V22.024C37.9515 22.664 38.0582 23.1227 38.2715 23.4C38.5062 23.656 38.8688 23.784 39.3595 23.784C40.2768 23.784 41.0022 23.144 41.5355 21.864L42.0795 22.152C41.2688 24.3493 39.8075 25.448 37.6955 25.448C36.2875 25.448 35.2208 25.0853 34.4955 24.36C34.0475 23.912 33.7382 23.3573 33.5675 22.696C33.4182 22.0133 33.3435 21.0853 33.3435 19.912V9.096H30.6555V8.456H33.3435V4.232C35.1142 4.232 36.6502 3.89067 37.9515 3.208V8.456ZM51.9885 22.824C53.7378 22.824 55.1458 21.9707 56.2125 20.264L56.7885 20.456C56.3618 21.8427 55.5938 23.0267 54.4845 24.008C53.3965 24.968 52.0312 25.448 50.3885 25.448C48.1272 25.448 46.3245 24.7333 44.9805 23.304C43.6578 21.8533 42.9965 19.72 42.9965 16.904C42.9965 14.024 43.7112 11.8267 45.1405 10.312C46.5698 8.776 48.4685 8.008 50.8365 8.008C54.8472 8.008 56.8525 10.376 56.8525 15.112H47.8605C47.8392 15.432 47.8285 15.9333 47.8285 16.616C47.8285 18.024 48.0205 19.1973 48.4045 20.136C48.8098 21.0747 49.3218 21.7573 49.9405 22.184C50.5805 22.6107 51.2632 22.824 51.9885 22.824ZM50.6445 8.68C49.8765 8.68 49.2365 9.16 48.7245 10.12C48.2338 11.0587 47.9245 12.52 47.7965 14.504H52.8205C52.8632 12.8187 52.6925 11.432 52.3085 10.344C51.9458 9.23467 51.3912 8.68 50.6445 8.68ZM69.526 8.008C70.486 8.008 71.2113 8.296 71.702 8.872C72.1927 9.448 72.438 10.1413 72.438 10.952C72.438 11.7413 72.2033 12.392 71.734 12.904C71.286 13.3947 70.6887 13.64 69.942 13.64C69.2167 13.64 68.6407 13.4587 68.214 13.096C67.7873 12.712 67.574 12.2107 67.574 11.592C67.574 10.568 68.0433 9.736 68.982 9.096C68.8967 9.07467 68.7687 9.064 68.598 9.064C68.3847 9.064 68.214 9.08533 68.086 9.128C67.2753 9.256 66.582 9.74667 66.006 10.6C65.4513 11.4533 65.174 12.328 65.174 13.224V21.704C65.174 22.6853 65.4087 23.368 65.878 23.752C66.3687 24.136 67.1367 24.328 68.182 24.328V25C67.8833 25 67.638 24.9893 67.446 24.968C65.27 24.904 63.8193 24.872 63.094 24.872C62.518 24.872 61.206 24.904 59.158 24.968C58.9873 24.9893 58.774 25 58.518 25V24.328C59.286 24.328 59.8193 24.168 60.118 23.848C60.4167 23.5067 60.566 22.8987 60.566 22.024V11.944C60.566 10.9627 60.4167 10.248 60.118 9.8C59.8193 9.352 59.286 9.128 58.518 9.128V8.456C59.2007 8.52 59.862 8.552 60.502 8.552C62.4007 8.552 63.958 8.40267 65.174 8.104V11.08C65.5793 10.1627 66.166 9.42667 66.934 8.872C67.702 8.296 68.566 8.008 69.526 8.008ZM77.6155 0.199999C78.5115 0.199999 79.2155 0.423999 79.7275 0.872C80.2608 1.29867 80.5275 1.896 80.5275 2.664C80.5275 3.432 80.2608 4.04 79.7275 4.488C79.2155 4.91467 78.5115 5.128 77.6155 5.128C76.7195 5.128 76.0048 4.91467 75.4715 4.488C74.9595 4.04 74.7035 3.432 74.7035 2.664C74.7035 1.896 74.9595 1.29867 75.4715 0.872C76.0048 0.423999 76.7195 0.199999 77.6155 0.199999ZM80.1115 22.024C80.1115 22.8987 80.2608 23.5067 80.5595 23.848C80.8795 24.168 81.4128 24.328 82.1595 24.328V25C80.0262 24.9147 78.6075 24.872 77.9035 24.872C77.2422 24.872 75.7595 24.9147 73.4555 25V24.328C74.2235 24.328 74.7568 24.168 75.0555 23.848C75.3542 23.5067 75.5035 22.8987 75.5035 22.024V11.944C75.5035 10.9627 75.3542 10.248 75.0555 9.8C74.7568 9.352 74.2235 9.128 73.4555 9.128V8.456C74.1382 8.52 74.7995 8.552 75.4395 8.552C77.3382 8.552 78.8955 8.40267 80.1115 8.104V22.024ZM91.8053 8.008C94.2586 8.008 96.1786 8.712 97.5653 10.12C98.9519 11.5067 99.6453 13.7147 99.6453 16.744C99.6453 19.7733 98.9519 21.9813 97.5653 23.368C96.1786 24.7547 94.2586 25.448 91.8053 25.448C89.3733 25.448 87.4533 24.7547 86.0453 23.368C84.6586 21.9813 83.9653 19.7733 83.9653 16.744C83.9653 13.7147 84.6586 11.5067 86.0453 10.12C87.4533 8.712 89.3733 8.008 91.8053 8.008ZM91.8053 8.648C90.8879 8.648 90.1519 9.32 89.5973 10.664C89.0639 11.9867 88.7973 14.0133 88.7973 16.744C88.7973 19.4747 89.0639 21.5013 89.5973 22.824C90.1519 24.1467 90.8879 24.808 91.8053 24.808C92.7439 24.808 93.4799 24.1573 94.0133 22.856C94.5466 21.5333 94.8133 19.496 94.8133 16.744C94.8133 13.992 94.5359 11.9547 93.9813 10.632C93.4479 9.30933 92.7226 8.648 91.8053 8.648ZM112.651 8.008C113.611 8.008 114.336 8.296 114.827 8.872C115.318 9.448 115.563 10.1413 115.563 10.952C115.563 11.7413 115.328 12.392 114.859 12.904C114.411 13.3947 113.814 13.64 113.067 13.64C112.342 13.64 111.766 13.4587 111.339 13.096C110.912 12.712 110.699 12.2107 110.699 11.592C110.699 10.568 111.168 9.736 112.107 9.096C112.022 9.07467 111.894 9.064 111.723 9.064C111.51 9.064 111.339 9.08533 111.211 9.128C110.4 9.256 109.707 9.74667 109.131 10.6C108.576 11.4533 108.299 12.328 108.299 13.224V21.704C108.299 22.6853 108.534 23.368 109.003 23.752C109.494 24.136 110.262 24.328 111.307 24.328V25C111.008 25 110.763 24.9893 110.571 24.968C108.395 24.904 106.944 24.872 106.219 24.872C105.643 24.872 104.331 24.904 102.283 24.968C102.112 24.9893 101.899 25 101.643 25V24.328C102.411 24.328 102.944 24.168 103.243 23.848C103.542 23.5067 103.691 22.8987 103.691 22.024V11.944C103.691 10.9627 103.542 10.248 103.243 9.8C102.944 9.352 102.411 9.128 101.643 9.128V8.456C102.326 8.52 102.987 8.552 103.627 8.552C105.526 8.552 107.083 8.40267 108.299 8.104V11.08C108.704 10.1627 109.291 9.42667 110.059 8.872C110.827 8.296 111.691 8.008 112.651 8.008ZM131.855 27.944C131.855 28.776 131.994 29.3413 132.271 29.64C132.57 29.96 133.071 30.12 133.775 30.12V30.792C131.727 30.7067 130.383 30.664 129.743 30.664C129.103 30.664 127.599 30.696 125.231 30.76L124.367 30.792V30.12C125.348 30.12 126.074 29.9387 126.543 29.576C127.012 29.2133 127.247 28.5627 127.247 27.624V22.536C126.884 23.496 126.351 24.2213 125.647 24.712C124.943 25.2027 124.1 25.448 123.119 25.448C121.178 25.448 119.599 24.712 118.383 23.24C117.167 21.768 116.559 19.5707 116.559 16.648C116.559 13.832 117.188 11.688 118.447 10.216C119.727 8.744 121.434 8.008 123.567 8.008C124.463 8.008 125.22 8.11467 125.839 8.328C126.479 8.52 127.044 8.85067 127.535 9.32C128.282 9.34133 129.039 9.224 129.807 8.968C130.575 8.69067 131.172 8.34933 131.599 7.944L132.079 8.2C131.93 8.73333 131.855 9.34133 131.855 10.024V27.944ZM124.463 24.072C125.103 24.072 125.679 23.8373 126.191 23.368C126.724 22.8773 127.076 22.2267 127.247 21.416V9.64C126.628 9 125.807 8.68 124.783 8.68C122.522 8.68 121.391 11.3573 121.391 16.712C121.391 19.336 121.658 21.224 122.191 22.376C122.724 23.5067 123.482 24.072 124.463 24.072ZM150.798 21.512C150.798 22.4933 150.947 23.208 151.246 23.656C151.566 24.104 152.099 24.328 152.846 24.328V25C152.184 24.936 151.523 24.904 150.862 24.904C149.006 24.904 147.448 25.0533 146.19 25.352V22.472C145.208 24.456 143.491 25.448 141.038 25.448C139.438 25.448 138.275 25.032 137.55 24.2C137.208 23.7947 136.952 23.272 136.782 22.632C136.632 21.9707 136.558 21.1067 136.558 20.04V11.944C136.558 10.9627 136.398 10.248 136.078 9.8C135.779 9.352 135.256 9.128 134.51 9.128V8.456C135.171 8.52 135.832 8.552 136.494 8.552C138.35 8.552 139.907 8.40267 141.166 8.104V21.352C141.166 22.248 141.294 22.92 141.55 23.368C141.827 23.816 142.339 24.04 143.086 24.04C143.939 24.04 144.664 23.688 145.262 22.984C145.88 22.2587 146.19 21.3733 146.19 20.328V11.944C146.19 10.9627 146.03 10.248 145.71 9.8C145.411 9.352 144.888 9.128 144.142 9.128V8.456C144.824 8.52 145.486 8.552 146.126 8.552C147.982 8.552 149.539 8.40267 150.798 8.104V21.512ZM157.82 20.52C158.652 20.52 159.313 20.744 159.804 21.192C160.295 21.6187 160.54 22.216 160.54 22.984C160.54 23.752 160.295 24.36 159.804 24.808C159.313 25.2347 158.652 25.448 157.82 25.448C156.988 25.448 156.327 25.2347 155.836 24.808C155.345 24.36 155.1 23.752 155.1 22.984C155.1 22.216 155.345 21.6187 155.836 21.192C156.327 20.744 156.988 20.52 157.82 20.52Z" fill="#121212"/>
</svg>
